<svg width="31" height="26" viewBox="0 0 31 26" fill="none" xmlns="http://www.w3.org/2000/svg">
<path d="M28.4689 0.0603283L28.4585 0.0627546L1.06171 6.95878C0.830747 7.0162 0.619733 7.12377 0.447539 7.27187C0.275344 7.41998 0.147341 7.604 0.0749785 7.80746C-0.0034132 8.02027 -0.0210207 8.2474 0.0237401 8.46845C0.0685009 8.68949 0.174226 8.89749 0.331402 9.07375L4.69503 13.9558C4.9103 14.1965 5.21268 14.3633 5.55006 14.4275C5.88744 14.4917 6.23867 14.4492 6.54323 14.3074L19.4231 8.23901C19.4739 8.21535 19.5325 8.20826 19.5887 8.21896C19.645 8.22966 19.6954 8.25749 19.7313 8.29763C19.7672 8.33778 19.7863 8.38773 19.7853 8.43886C19.7843 8.49 19.7633 8.53911 19.7259 8.57773L10.1643 18.3579C9.94009 18.5894 9.81402 18.8837 9.80787 19.1903C9.80171 19.4968 9.91584 19.7963 10.1306 20.0372L14.495 24.9201C14.6452 25.0883 14.8397 25.221 15.0611 25.3062C15.2825 25.3915 15.5239 25.4265 15.7636 25.4083C16.0526 25.3872 16.3277 25.2907 16.5545 25.1309C16.7119 25.0196 16.8426 24.8812 16.9388 24.7239L30.728 2.60457L30.7337 2.59423C30.9155 2.29218 30.9934 1.94879 30.958 1.60651C30.9225 1.26423 30.7752 0.938099 30.5341 0.668459C30.2931 0.398819 29.9691 0.197503 29.602 0.0894169C29.2349 -0.0186693 28.841 -0.0287828 28.4689 0.0603283Z" fill="#C0B59D"/>
</svg>
