<svg width="80" height="80" viewBox="0 0 80 80" fill="none" xmlns="http://www.w3.org/2000/svg">
<rect width="80" height="80" rx="40" fill="#FF8B3D"/>
<path d="M38.1914 36.4115C38.3145 48.8653 34.3327 50.8767 29.5727 50.8767C24.8128 50.8767 20.6407 48.1806 20.9541 36.4115C21.2675 24.6425 24.8128 21.9463 29.5727 21.9463C34.3327 21.9463 38.0683 23.9577 38.1914 36.4115Z" fill="#FFF5EB"/>
<mask id="mask0_262_484" style="mask-type:alpha" maskUnits="userSpaceOnUse" x="20" y="21" width="19" height="30">
<path d="M38.6207 36.2192C38.7469 48.8379 34.666 50.8759 29.7876 50.8759C24.9092 50.8759 20.6333 48.1441 20.9545 36.2192C21.2757 24.2944 24.9092 21.5625 29.7876 21.5625C34.666 21.5625 38.4945 23.6006 38.6207 36.2192Z" fill="#FFF5EB"/>
</mask>
<g mask="url(#mask0_262_484)">
<path d="M41.4427 36.8028C41.4427 42.6979 38.4876 47.4767 34.8424 47.4767C31.1972 47.4767 28.2422 44.7684 28.2422 36.8028C28.2422 30.9078 31.1972 26.1289 34.8424 26.1289C38.4876 26.1289 41.4427 30.9078 41.4427 36.8028Z" fill="#1A1A1A"/>
</g>
<mask id="mask1_262_484" style="mask-type:alpha" maskUnits="userSpaceOnUse" x="20" y="21" width="19" height="30">
<path d="M38.6207 36.2192C38.7469 48.8379 34.666 50.8759 29.7876 50.8759C24.9092 50.8759 20.6333 48.1441 20.9545 36.2192C21.2757 24.2944 24.9092 21.5625 29.7876 21.5625C34.666 21.5625 38.4945 23.6006 38.6207 36.2192Z" fill="#FFF5EB"/>
</mask>
<g mask="url(#mask1_262_484)">
<path d="M41.4427 36.8028C41.4427 42.6979 38.4876 47.4767 34.8424 47.4767C31.1972 47.4767 28.2422 44.7684 28.2422 36.8028C28.2422 30.9078 31.1972 26.1289 34.8424 26.1289C38.4876 26.1289 41.4427 30.9078 41.4427 36.8028Z" fill="#1A1A1A"/>
</g>
<mask id="mask2_262_484" style="mask-type:alpha" maskUnits="userSpaceOnUse" x="20" y="21" width="19" height="30">
<path d="M38.6207 36.2192C38.7469 48.8379 34.666 50.8759 29.7876 50.8759C24.9092 50.8759 20.6333 48.1441 20.9545 36.2192C21.2757 24.2944 24.9092 21.5625 29.7876 21.5625C34.666 21.5625 38.4945 23.6006 38.6207 36.2192Z" fill="#FFF5EB"/>
</mask>
<g mask="url(#mask2_262_484)">
<path d="M41.4427 36.8028C41.4427 42.6979 38.4876 47.4767 34.8424 47.4767C31.1972 47.4767 28.2422 44.7684 28.2422 36.8028C28.2422 30.9078 31.1972 26.1289 34.8424 26.1289C38.4876 26.1289 41.4427 30.9078 41.4427 36.8028Z" fill="#1A1A1A"/>
</g>
<path d="M59.0593 36.4115C59.1882 48.8653 55.0212 50.8767 50.0398 50.8767C45.0585 50.8767 40.6923 48.1806 41.0203 36.4115C41.3483 24.6425 45.0585 21.9463 50.0398 21.9463C55.0212 21.9463 58.9305 23.9577 59.0593 36.4115Z" fill="#FFF5EB"/>
<mask id="mask3_262_484" style="mask-type:alpha" maskUnits="userSpaceOnUse" x="41" y="21" width="19" height="30">
<path d="M59.0602 36.2192C59.1864 48.8379 55.1055 50.8759 50.2271 50.8759C45.3487 50.8759 41.0728 48.1441 41.394 36.2192C41.7152 24.2944 45.3487 21.5625 50.2271 21.5625C55.1055 21.5625 58.934 23.6006 59.0602 36.2192Z" fill="#FFF5EB"/>
</mask>
<g mask="url(#mask3_262_484)">
<path d="M61.8821 36.8028C61.8821 42.6979 58.9271 47.4767 55.2819 47.4767C51.6367 47.4767 48.6816 44.7684 48.6816 36.8028C48.6816 30.9078 51.6367 26.1289 55.2819 26.1289C58.9271 26.1289 61.8821 30.9078 61.8821 36.8028Z" fill="#1A1A1A"/>
</g>
<mask id="mask4_262_484" style="mask-type:alpha" maskUnits="userSpaceOnUse" x="41" y="21" width="19" height="30">
<path d="M59.0602 36.2192C59.1864 48.8379 55.1055 50.8759 50.2271 50.8759C45.3487 50.8759 41.0728 48.1441 41.394 36.2192C41.7152 24.2944 45.3487 21.5625 50.2271 21.5625C55.1055 21.5625 58.934 23.6006 59.0602 36.2192Z" fill="#FFF5EB"/>
</mask>
<g mask="url(#mask4_262_484)">
<path d="M61.8821 36.8028C61.8821 42.6979 58.9271 47.4767 55.2819 47.4767C51.6367 47.4767 48.6816 44.7684 48.6816 36.8028C48.6816 30.9078 51.6367 26.1289 55.2819 26.1289C58.9271 26.1289 61.8821 30.9078 61.8821 36.8028Z" fill="#1A1A1A"/>
</g>
</svg>
