<svg width="28" height="29" viewBox="0 0 28 29" fill="none" xmlns="http://www.w3.org/2000/svg">
<path d="M13.9709 0.164763C13.8656 0.059019 13.7256 0 13.58 0C13.4344 0 13.2943 0.059019 13.1891 0.164763L0.176703 13.2229C0.121441 13.2784 0.0774763 13.3452 0.0474686 13.4191C0.0174609 13.4929 -8.66994e-05 13.6552 0 13.7356V25.9083C0 26.5385 0.238296 27.1428 0.662465 27.5884C1.08664 28.0339 1.66193 28.2843 2.2618 28.2843H9.05426C9.3542 28.2843 9.64185 28.1591 9.85393 27.9363C10.066 27.7135 10.1852 27.4114 10.1852 27.0963V16.9985C10.1852 16.8409 10.2447 16.6898 10.3508 16.5784C10.4568 16.467 10.6006 16.4045 10.7506 16.4045H16.4051C16.5551 16.4045 16.6989 16.467 16.8049 16.5784C16.911 16.6898 16.9706 16.8409 16.9706 16.9985V27.0963C16.9706 27.4114 17.0897 27.7135 17.3018 27.9363C17.5139 28.1591 17.8015 28.2843 18.1015 28.2843H24.8911C25.491 28.2843 26.0663 28.0339 26.4904 27.5884C26.9146 27.1428 27.1529 26.5385 27.1529 25.9083V13.6528C27.153 13.5725 27.1376 13.4929 27.1076 13.4191C27.0775 13.3452 27.0336 13.2784 26.9783 13.2229L13.9709 0.164763Z" fill="#FF8B0D"/>
</svg>
