<svg width="30" height="24" viewBox="0 0 30 24" fill="none" xmlns="http://www.w3.org/2000/svg">
<path d="M28.1923 10.2803L28.1824 10.2762L1.82556 0.104899C1.60379 0.0185672 1.36937 -0.015291 1.14327 0.00635293C0.917184 0.0279969 0.706472 0.104468 0.529989 0.228926C0.343198 0.357528 0.197787 0.532907 0.106838 0.739282C0.0158891 0.945657 -0.0177433 1.17655 0.00896668 1.4112L0.757046 7.91629C0.794047 8.23706 0.944818 8.54775 1.18337 8.7948C1.42193 9.04186 1.73332 9.20979 2.06388 9.26967L16.0854 11.7427C16.1405 11.7527 16.1924 11.7807 16.2322 11.8219C16.272 11.8631 16.2971 11.9149 16.3033 11.9684C16.3094 12.0219 16.2962 12.0737 16.2659 12.1149C16.2356 12.1561 16.1901 12.1841 16.1373 12.1941L2.68517 14.6671C2.36846 14.7269 2.09568 14.8946 1.91383 15.1414C1.73198 15.3882 1.65243 15.6987 1.68889 16.0194L2.43711 22.5256C2.46272 22.7497 2.54506 22.9703 2.67676 23.1676C2.80846 23.3649 2.98539 23.5328 3.19167 23.6562C3.43992 23.8057 3.72028 23.8856 3.99773 23.8859C4.19058 23.8857 4.37713 23.848 4.54643 23.7751L28.5699 13.6617L28.5805 13.6565C28.9032 13.5147 29.165 13.2792 29.3335 12.9791C29.502 12.6791 29.5698 12.3277 29.5285 11.9684C29.4871 11.6091 29.3385 11.2577 29.1011 10.9577C28.8636 10.6576 28.5476 10.4221 28.1923 10.2803Z" fill="#C0B59D"/>
</svg>
