<svg preserveAspectRatio="none" width="100%" height="100%" overflow="visible" style="display: block;" viewBox="0 0 17.1763 11.6075" fill="none" xmlns="http://www.w3.org/2000/svg">
<path id="Active indicator" fill-rule="evenodd" clip-rule="evenodd" d="M0.0173374 1.73917C0.161513 0.644054 1.16616 -0.126838 2.26128 0.0173374L3.90472 0.233701L5.6083 0.611375L7.27248 1.13609L8.88459 1.80385L10.4324 2.60957L11.904 3.54713L13.2884 4.60938L14.5749 5.78825L15.7538 7.07476L16.7629 8.38983C17.4353 9.26615 17.27 10.5216 16.3937 11.1941C15.5174 11.8665 14.2619 11.7012 13.5895 10.8249L12.6867 9.64836L11.7438 8.61937L10.7148 7.67648L9.60756 6.82686L8.43047 6.07697L7.19251 5.43254L5.90309 4.89844L4.57204 4.47876L3.20946 4.17668L1.73917 3.98312C0.644054 3.83894 -0.126838 2.83429 0.0173374 1.73917Z" fill="var(--fill-0, #D4BE91)"/>
</svg>
