<svg preserveAspectRatio="none" width="100%" height="100%" overflow="visible" style="display: block;" viewBox="0 0 40.0038 38.9169" fill="none" xmlns="http://www.w3.org/2000/svg">
<path id="Track" fill-rule="evenodd" clip-rule="evenodd" d="M15.6933 1.23516C16.116 2.25564 15.6314 3.42558 14.6109 3.84828L13.2408 4.41579L12.0029 5.06023L10.8258 5.81012L9.71853 6.65974L8.68954 7.60263L7.74665 8.63161L6.89703 9.73886L6.14715 10.9159L5.50271 12.1539L4.96861 13.4433L4.54893 14.7744L4.24686 16.1369L4.06469 17.5207L4.00381 18.915L4.06469 20.3093L4.24686 21.693L4.54893 23.0556L4.96861 24.3867L5.50271 25.6761L6.14715 26.914L6.89704 28.0911L7.74665 29.1984L8.68955 30.2274L9.71854 31.1702L10.8258 32.0199L12.0029 32.7697L13.2408 33.4142L14.5302 33.9483L15.8613 34.368L17.2238 34.67L18.6076 34.8522L20.0019 34.9131L21.3962 34.8522L22.78 34.67L24.1425 34.368L25.4736 33.9483L26.763 33.4142L28.0009 32.7697L29.178 32.0199L30.2853 31.1702L31.3143 30.2274L32.2572 29.1984L33.1068 28.0911L33.8567 26.914L34.5011 25.6761L35.0352 24.3866L35.4549 23.0556L35.757 21.6931L35.9391 20.3093L36 18.915L35.9391 17.5207L35.7456 16.0504C35.6014 14.9553 36.3723 13.9506 37.4674 13.8064C38.5625 13.6623 39.5672 14.4332 39.7113 15.5283L39.9277 17.1717L40.0038 18.915L39.9277 20.6583L39.6999 22.3883L39.3223 24.0919L38.7975 25.756L38.1298 27.3682L37.3241 28.9159L36.3865 30.3876L35.3243 31.772L34.1454 33.0585L32.8589 34.2373L31.4745 35.2996L30.0029 36.2371L28.4551 37.0429L26.843 37.7106L25.1788 38.2353L23.4752 38.613L21.7452 38.8408L20.0019 38.9169L18.2586 38.8408L16.5286 38.613L14.825 38.2353L13.1608 37.7106L11.5487 37.0429L10.001 36.2371L8.52928 35.2996L7.14493 34.2373L5.85842 33.0585L4.67956 31.772L3.6173 30.3876L2.67975 28.9159L1.87402 27.3682L1.20626 25.756L0.681548 24.0919L0.303874 22.3883L0.0761126 20.6583L0 18.915L0.0761126 17.1717L0.303874 15.4417L0.681548 13.7381L1.20626 12.0739L1.87402 10.4618L2.67975 8.91404L3.6173 7.44237L4.67956 6.05801L5.85842 4.77151L7.14493 3.59264L8.52928 2.53039L10.001 1.59283L11.5487 0.787108L13.0802 0.152765C14.1007 -0.269936 15.2706 0.214667 15.6933 1.23516Z" fill="var(--fill-0, #FF8B3D)"/>
</svg>
